<svg width="60" height="60" viewBox="0 0 60 60" fill="none" xmlns="http://www.w3.org/2000/svg">
<g filter="url(#filter0_d_800_4985)">
<circle cx="30" cy="26" r="25.5" fill="white" stroke="#469AF6"/>
</g>
<path d="M25.72 30.456L27.481 29.948L38.084 19.218C38.1676 19.1323 38.2142 19.0171 38.2136 18.8974C38.2131 18.7776 38.1654 18.6629 38.081 18.578L37.446 17.936C37.405 17.8938 37.3559 17.8602 37.3018 17.8372C37.2477 17.8142 37.1895 17.8022 37.1306 17.8019C37.0718 17.8017 37.0135 17.8131 36.9591 17.8356C36.9048 17.8581 36.8554 17.8912 36.814 17.933L26.239 28.635L25.72 30.456ZM38.703 16.664L39.338 17.307C40.214 18.194 40.222 19.625 39.354 20.503L28.428 31.561L24.664 32.645C24.5502 32.677 24.4312 32.6862 24.3139 32.6722C24.1965 32.6582 24.083 32.6212 23.98 32.5634C23.8769 32.5055 23.7862 32.4279 23.7131 32.335C23.64 32.2421 23.586 32.1358 23.554 32.022C23.505 31.857 23.5043 31.6814 23.552 31.516L24.647 27.676L35.544 16.647C35.7512 16.4383 35.9979 16.273 36.2696 16.1607C36.5414 16.0484 36.8328 15.9913 37.1269 15.9928C37.4209 15.9943 37.7117 16.0543 37.9823 16.1694C38.2529 16.2845 38.4979 16.4532 38.703 16.664ZM27.184 17.817C27.68 17.817 28.082 18.224 28.082 18.726C28.0828 18.8446 28.0602 18.9623 28.0155 19.0722C27.9708 19.1821 27.9048 19.2822 27.8214 19.3666C27.738 19.451 27.6388 19.5182 27.5294 19.5642C27.42 19.6103 27.3027 19.6343 27.184 19.635H23.592C22.6 19.635 21.796 20.449 21.796 21.452V32.358C21.796 33.362 22.6 34.176 23.592 34.176H34.368C35.36 34.176 36.165 33.362 36.165 32.358V28.723C36.165 28.221 36.567 27.814 37.063 27.814C37.559 27.814 37.961 28.221 37.961 28.724V32.358C37.961 34.366 36.352 35.994 34.368 35.994H23.592C21.608 35.994 20 34.366 20 32.358V21.452C20 19.445 21.608 17.817 23.592 17.817H27.184Z" fill="#469AF6"/>
<defs>
<filter id="filter0_d_800_4985" x="0" y="0" width="60" height="60" filterUnits="userSpaceOnUse" color-interpolation-filters="sRGB">
<feFlood flood-opacity="0" result="BackgroundImageFix"/>
<feColorMatrix in="SourceAlpha" type="matrix" values="0 0 0 0 0 0 0 0 0 0 0 0 0 0 0 0 0 0 127 0" result="hardAlpha"/>
<feOffset dy="4"/>
<feGaussianBlur stdDeviation="2"/>
<feComposite in2="hardAlpha" operator="out"/>
<feColorMatrix type="matrix" values="0 0 0 0 0.27451 0 0 0 0 0.603922 0 0 0 0 0.964706 0 0 0 0.25 0"/>
<feBlend mode="normal" in2="BackgroundImageFix" result="effect1_dropShadow_800_4985"/>
<feBlend mode="normal" in="SourceGraphic" in2="effect1_dropShadow_800_4985" result="shape"/>
</filter>
</defs>
</svg>
