<svg width="32" height="32" viewBox="0 0 32 32" fill="none" xmlns="http://www.w3.org/2000/svg">
<g id="fluent:people-48-filled">
<path id="Vector" d="M11.8066 16.0737C12.9089 16.0737 13.9661 15.6358 14.7455 14.8564C15.525 14.0769 15.9629 13.0198 15.9629 11.9175C15.9629 10.8152 15.525 9.75801 14.7455 8.97857C13.9661 8.19912 12.9089 7.76123 11.8066 7.76123C10.7043 7.76123 9.64717 8.19912 8.86772 8.97857C8.08828 9.75801 7.65039 10.8152 7.65039 11.9175C7.65039 13.0198 8.08828 14.0769 8.86772 14.8564C9.64717 15.6358 10.7043 16.0737 11.8066 16.0737ZM21.1582 16.0737C21.9849 16.0737 22.7778 15.7453 23.3624 15.1607C23.947 14.5761 24.2754 13.7833 24.2754 12.9565C24.2754 12.1298 23.947 11.3369 23.3624 10.7524C22.7778 10.1678 21.9849 9.83935 21.1582 9.83935C20.3315 9.83935 19.5386 10.1678 18.954 10.7524C18.3694 11.3369 18.041 12.1298 18.041 12.9565C18.041 13.7833 18.3694 14.5761 18.954 15.1607C19.5386 15.7453 20.3315 16.0737 21.1582 16.0737ZM7.00097 17.6323C6.48427 17.6323 5.98873 17.8376 5.62336 18.2029C5.25799 18.5683 5.05273 19.0638 5.05273 19.5806V20.23C5.05273 20.23 5.05273 24.9057 11.8066 24.9057C18.5605 24.9057 18.5605 20.23 18.5605 20.23V19.5806C18.5605 19.0638 18.3553 18.5683 17.9899 18.2029C17.6245 17.8376 17.129 17.6323 16.6123 17.6323H7.00097ZM18.3912 23.3934C19.106 23.6833 20.0116 23.8667 21.1577 23.8667C26.6127 23.8667 26.6127 19.7104 26.6127 19.7104V19.5806C26.6127 19.0639 26.4075 18.5685 26.0423 18.2031C25.677 17.8378 25.1816 17.6324 24.665 17.6323H18.8759C19.343 18.1738 19.5995 18.8654 19.5986 19.5806V20.2533L19.598 20.283L19.5949 20.3609C19.5921 20.4208 19.5861 20.4953 19.5767 20.5843C19.5507 20.8163 19.509 21.0463 19.452 21.2727C19.2551 22.0476 18.8932 22.771 18.3912 23.3934Z" fill="#59A5F5"/>
</g>
</svg>
