<svg width="32" height="32" viewBox="0 0 32 32" fill="none" xmlns="http://www.w3.org/2000/svg">
<path d="M9.02605 11.7646C9.02605 11.0498 9.31001 10.3643 9.81545 9.85881C10.3209 9.35336 11.0064 9.0694 11.7212 9.0694C12.436 9.0694 13.1216 9.35336 13.627 9.85881C14.1325 10.3643 14.4164 11.0498 14.4164 11.7646C14.4164 12.4794 14.1325 13.1649 13.627 13.6704C13.1216 14.1758 12.436 14.4598 11.7212 14.4598C11.0064 14.4598 10.3209 14.1758 9.81545 13.6704C9.31001 13.1649 9.02605 12.4794 9.02605 11.7646ZM11.7212 7.5293C10.598 7.5293 9.5207 7.97551 8.72643 8.76979C7.93216 9.56406 7.48594 10.6413 7.48594 11.7646C7.48594 12.8879 7.93216 13.9651 8.72643 14.7594C9.5207 15.5537 10.598 15.9999 11.7212 15.9999C12.8445 15.9999 13.9218 15.5537 14.716 14.7594C15.5103 13.9651 15.9565 12.8879 15.9565 11.7646C15.9565 10.6413 15.5103 9.56406 14.716 8.76979C13.9218 7.97551 12.8445 7.5293 11.7212 7.5293ZM19.8068 12.9197C19.8068 12.5112 19.9691 12.1195 20.2579 11.8307C20.5467 11.5418 20.9384 11.3796 21.3469 11.3796C21.7554 11.3796 22.1471 11.5418 22.4359 11.8307C22.7247 12.1195 22.887 12.5112 22.887 12.9197C22.887 13.3281 22.7247 13.7199 22.4359 14.0087C22.1471 14.2975 21.7554 14.4598 21.3469 14.4598C20.9384 14.4598 20.5467 14.2975 20.2579 14.0087C19.9691 13.7199 19.8068 13.3281 19.8068 12.9197ZM21.3469 9.83946C20.53 9.83946 19.7465 10.164 19.1689 10.7416C18.5912 11.3193 18.2667 12.1027 18.2667 12.9197C18.2667 13.7366 18.5912 14.5201 19.1689 15.0977C19.7465 15.6754 20.53 15.9999 21.3469 15.9999C22.1638 15.9999 22.9473 15.6754 23.5249 15.0977C24.1026 14.5201 24.4271 13.7366 24.4271 12.9197C24.4271 12.1027 24.1026 11.3193 23.5249 10.7416C22.9473 10.164 22.1638 9.83946 21.3469 9.83946ZM5.17578 19.8502C5.17578 19.2375 5.41917 18.6499 5.85241 18.2166C6.28565 17.7834 6.87325 17.54 7.48594 17.54H15.9565C16.5692 17.54 17.1568 17.7834 17.5901 18.2166C18.0233 18.6499 18.2667 19.2375 18.2667 19.8502V20.0242C18.2649 20.096 18.2598 20.1677 18.2513 20.239C18.2359 20.3722 18.2074 20.5532 18.1512 20.7673C18.0025 21.3317 17.7408 21.8602 17.3819 22.3205C16.4809 23.4771 14.786 24.4705 11.7212 24.4705C8.65642 24.4705 6.96231 23.4771 6.06057 22.3205C5.70139 21.8602 5.43942 21.3318 5.29052 20.7673C5.23211 20.5407 5.19447 20.3092 5.17809 20.0758L5.17655 20.0242V20.0065L5.17578 20.0003V19.8502ZM6.71589 19.9872V19.9965C6.71589 20.0098 6.7182 20.0339 6.72282 20.0688C6.73052 20.1382 6.74669 20.246 6.78134 20.3799C6.85065 20.6479 6.99157 21.0099 7.27495 21.3741C7.81783 22.0702 9.01065 22.9304 11.7212 22.9304C14.4318 22.9304 15.6254 22.0702 16.1675 21.3749C16.3972 21.0798 16.5649 20.7414 16.6604 20.3799C16.6932 20.2542 16.7153 20.1259 16.7266 19.9965L16.7274 19.9872V19.8502C16.7274 19.6459 16.6462 19.4501 16.5018 19.3056C16.3574 19.1612 16.1615 19.0801 15.9573 19.0801H7.48594C7.28171 19.0801 7.08584 19.1612 6.94143 19.3056C6.79702 19.4501 6.71589 19.6459 6.71589 19.8502V19.9872ZM18.634 22.5392C19.3502 22.7825 20.2411 22.9304 21.3469 22.9304C23.8118 22.9304 25.2126 22.1965 25.9772 21.294C26.3492 20.8551 26.5394 20.41 26.6356 20.0681C26.6874 19.8847 26.7207 19.6967 26.735 19.5067L26.7357 19.479L26.7365 19.462V19.4328C26.7366 19.1843 26.6877 18.9381 26.5927 18.7085C26.4977 18.4789 26.3583 18.2702 26.1826 18.0944C26.0069 17.9187 25.7983 17.7792 25.5687 17.6841C25.3391 17.589 25.093 17.54 24.8445 17.54H18.5385C18.9235 17.9705 19.2031 18.4972 19.3355 19.0801H24.8445C25.037 19.0801 25.1926 19.2333 25.1972 19.4235L25.1941 19.4574C25.1849 19.5224 25.1715 19.5867 25.154 19.6499C25.1063 19.8194 25.0077 20.0565 24.8021 20.2991C24.4117 20.7604 23.5023 21.3903 21.3469 21.3903C20.4498 21.3903 19.7691 21.2809 19.2516 21.1207C19.115 21.6208 18.907 22.0985 18.634 22.5392Z" fill="#8C8C8C"/>
</svg>
