<svg width="32" height="32" viewBox="0 0 32 32" fill="none" xmlns="http://www.w3.org/2000/svg">
<path d="M6.66602 25.3338V13.7445C6.66602 13.4031 6.74246 13.08 6.89535 12.7751C7.04824 12.4703 7.2589 12.2191 7.52735 12.0218L14.7073 6.58448C15.0833 6.29736 15.5127 6.15381 15.9953 6.15381C16.478 6.15381 16.91 6.29736 17.2913 6.58448L24.4713 12.0205C24.7407 12.2178 24.9513 12.4694 25.1033 12.7751C25.2562 13.08 25.3327 13.4031 25.3327 13.7445V25.3338C25.3327 25.6911 25.1998 26.0027 24.934 26.2685C24.6682 26.5343 24.3567 26.6671 23.9993 26.6671H19.4873C19.1816 26.6671 18.9256 26.564 18.7193 26.3578C18.5131 26.1507 18.41 25.8947 18.41 25.5898V19.2311C18.41 18.9263 18.3069 18.6707 18.1007 18.4645C17.8936 18.2574 17.6376 18.1538 17.3327 18.1538H14.666C14.3611 18.1538 14.1056 18.2574 13.8993 18.4645C13.6922 18.6707 13.5887 18.9263 13.5887 19.2311V25.5911C13.5887 25.896 13.4856 26.1516 13.2793 26.3578C13.0731 26.564 12.8176 26.6671 12.5127 26.6671H7.99935C7.64202 26.6671 7.33046 26.5343 7.06468 26.2685C6.7989 26.0027 6.66602 25.6911 6.66602 25.3338Z" fill="#469AF6"/>
</svg>
