<svg width="32" height="33" viewBox="0 0 32 33" fill="none" xmlns="http://www.w3.org/2000/svg">
<path d="M7.99935 25.8336H12.922V19.0643C12.922 18.7594 13.0256 18.5039 13.2327 18.2976C13.4389 18.0905 13.6945 17.987 13.9993 17.987H17.9993C18.3042 17.987 18.5602 18.0905 18.7673 18.2976C18.9736 18.5039 19.0767 18.7594 19.0767 19.0643V25.8336H23.9993V14.2443C23.9993 14.1074 23.9696 13.983 23.91 13.871C23.8505 13.759 23.7691 13.6612 23.666 13.5776L16.4873 8.16698C16.3505 8.04787 16.1878 7.98832 15.9993 7.98832C15.8109 7.98832 15.6487 8.04787 15.5127 8.16698L8.33268 13.5776C8.23046 13.663 8.14913 13.7608 8.08868 13.871C8.02824 13.9812 7.99846 14.1056 7.99935 14.2443V25.8336ZM6.66602 25.8336V14.2443C6.66602 13.903 6.74246 13.5799 6.89535 13.275C7.04824 12.9701 7.2589 12.719 7.52735 12.5216L14.7073 7.08432C15.0833 6.7972 15.5127 6.65365 15.9953 6.65365C16.478 6.65365 16.91 6.7972 17.2913 7.08432L24.4713 12.5203C24.7407 12.7176 24.9513 12.9692 25.1033 13.275C25.2562 13.5799 25.3327 13.903 25.3327 14.2443V25.8336C25.3327 26.191 25.1998 26.5025 24.934 26.7683C24.6682 27.0341 24.3567 27.167 23.9993 27.167H18.8207C18.5149 27.167 18.2589 27.0639 18.0527 26.8576C17.8465 26.6505 17.7433 26.3945 17.7433 26.0896V19.3216H14.2553V26.0896C14.2553 26.3954 14.1522 26.6514 13.946 26.8576C13.7398 27.0639 13.4842 27.167 13.1793 27.167H7.99935C7.64202 27.167 7.33046 27.0341 7.06468 26.7683C6.7989 26.5025 6.66602 26.191 6.66602 25.8336Z" fill="#8C8C8C"/>
</svg>
