<svg width="32" height="33" viewBox="0 0 32 33" fill="none" xmlns="http://www.w3.org/2000/svg">
<g id="material-symbols-light:home-outline-rounded">
<path id="Vector" d="M7.99935 25.8336H12.922V19.0642C12.922 18.7593 13.0256 18.5038 13.2327 18.2976C13.4389 18.0905 13.6945 17.9869 13.9993 17.9869H17.9993C18.3042 17.9869 18.5602 18.0905 18.7673 18.2976C18.9736 18.5038 19.0767 18.7593 19.0767 19.0642V25.8336H23.9993V14.2442C23.9993 14.1073 23.9696 13.9829 23.91 13.8709C23.8505 13.7589 23.7691 13.6611 23.666 13.5776L16.4873 8.1669C16.3505 8.04779 16.1878 7.98823 15.9993 7.98823C15.8109 7.98823 15.6487 8.04779 15.5127 8.1669L8.33268 13.5776C8.23046 13.6629 8.14913 13.7607 8.08868 13.8709C8.02824 13.9811 7.99846 14.1056 7.99935 14.2442V25.8336ZM6.66602 25.8336V14.2442C6.66602 13.9029 6.74246 13.5798 6.89535 13.2749C7.04824 12.97 7.2589 12.7189 7.52735 12.5216L14.7073 7.08423C15.0833 6.79712 15.5127 6.65356 15.9953 6.65356C16.478 6.65356 16.91 6.79712 17.2913 7.08423L24.4713 12.5202C24.7407 12.7176 24.9513 12.9691 25.1033 13.2749C25.2562 13.5798 25.3327 13.9029 25.3327 14.2442V25.8336C25.3327 26.1909 25.1998 26.5025 24.934 26.7682C24.6682 27.034 24.3567 27.1669 23.9993 27.1669H18.8207C18.5149 27.1669 18.2589 27.0638 18.0527 26.8576C17.8465 26.6505 17.7433 26.3945 17.7433 26.0896V19.3216H14.2553V26.0896C14.2553 26.3953 14.1522 26.6513 13.946 26.8576C13.7398 27.0638 13.4842 27.1669 13.1793 27.1669H7.99935C7.64202 27.1669 7.33046 27.034 7.06468 26.7682C6.7989 26.5025 6.66602 26.1909 6.66602 25.8336Z" fill="#CCCCCC"/>
</g>
</svg>
