<svg width="33" height="32" viewBox="0 0 33 32" fill="none" xmlns="http://www.w3.org/2000/svg">
<path d="M17.8844 10.3946C17.8844 10.5764 17.8486 10.7565 17.779 10.9245C17.7095 11.0925 17.6075 11.2451 17.4789 11.3737C17.3503 11.5022 17.1977 11.6042 17.0297 11.6738C16.8617 11.7434 16.6817 11.7792 16.4998 11.7792C16.318 11.7792 16.138 11.7434 15.97 11.6738C15.802 11.6042 15.6493 11.5022 15.5208 11.3737C15.3922 11.2451 15.2902 11.0925 15.2206 10.9245C15.151 10.7565 15.1152 10.5764 15.1152 10.3946C15.1152 10.0274 15.2611 9.67521 15.5208 9.41555C15.7804 9.15589 16.1326 9.01001 16.4998 9.01001C16.8671 9.01001 17.2192 9.15589 17.4789 9.41555C17.7386 9.67521 17.8844 10.0274 17.8844 10.3946ZM16.4018 13.1771C17.0787 13.1771 17.6268 13.7252 17.6268 14.4021V21.8151C17.6268 22.14 17.4978 22.4516 17.268 22.6813C17.0383 22.911 16.7267 23.0401 16.4018 23.0401C16.0769 23.0401 15.7654 22.911 15.5356 22.6813C15.3059 22.4516 15.1768 22.14 15.1768 21.8151V14.4021C15.1768 13.7252 15.7256 13.1771 16.4018 13.1771Z" fill="#8C8C8C"/>
<path d="M9.5 5.5C9.04037 5.5 8.58525 5.59053 8.16061 5.76642C7.73597 5.94231 7.35013 6.20012 7.02513 6.52513C6.36875 7.1815 6 8.07174 6 9V23C6 23.9283 6.36875 24.8185 7.02513 25.4749C7.35013 25.7999 7.73597 26.0577 8.16061 26.2336C8.58525 26.4095 9.04037 26.5 9.5 26.5H23.5C24.4283 26.5 25.3185 26.1313 25.9749 25.4749C26.6313 24.8185 27 23.9283 27 23V9C27 8.54037 26.9095 8.08525 26.7336 7.66061C26.5577 7.23597 26.2999 6.85013 25.9749 6.52513C25.6499 6.20012 25.264 5.94231 24.8394 5.76642C24.4148 5.59053 23.9596 5.5 23.5 5.5H9.5ZM7.4 9C7.4 8.44305 7.62125 7.9089 8.01508 7.51508C8.4089 7.12125 8.94305 6.9 9.5 6.9H23.5C24.057 6.9 24.5911 7.12125 24.9849 7.51508C25.3788 7.9089 25.6 8.44305 25.6 9V23C25.6 23.557 25.3788 24.0911 24.9849 24.4849C24.5911 24.8788 24.057 25.1 23.5 25.1H9.5C8.94305 25.1 8.4089 24.8788 8.01508 24.4849C7.62125 24.0911 7.4 23.557 7.4 23V9Z" fill="#8C8C8C"/>
</svg>
