<svg width="32" height="32" viewBox="0 0 32 32" fill="none" xmlns="http://www.w3.org/2000/svg">
<g id="fluent-emoji-flat:information">
<g id="Group">
<path id="Vector" d="M23.5 5.5H8.5C6.84315 5.5 5.5 6.84315 5.5 8.5V23.5C5.5 25.1569 6.84315 26.5 8.5 26.5H23.5C25.1569 26.5 26.5 25.1569 26.5 23.5V8.5C26.5 6.84315 25.1569 5.5 23.5 5.5Z" fill="#59A5F5"/>
<path id="Vector_2" d="M16.0011 11.478C16.1959 11.478 16.3888 11.4396 16.5688 11.3651C16.7488 11.2905 16.9123 11.1812 17.0501 11.0435C17.1878 10.9057 17.2971 10.7422 17.3717 10.5622C17.4462 10.3822 17.4846 10.1893 17.4846 9.99449C17.4846 9.79967 17.4462 9.60676 17.3717 9.42678C17.2971 9.24679 17.1878 9.08325 17.0501 8.94549C16.9123 8.80774 16.7488 8.69846 16.5688 8.62391C16.3888 8.54936 16.1959 8.51099 16.0011 8.51099C15.6076 8.51099 15.2303 8.66728 14.9521 8.94549C14.6739 9.2237 14.5176 9.60104 14.5176 9.99449C14.5176 10.3879 14.6739 10.7653 14.9521 11.0435C15.2303 11.3217 15.6076 11.478 16.0011 11.478ZM17.2086 14.2882C17.2086 13.9401 17.0703 13.6063 16.8242 13.3602C16.578 13.114 16.2442 12.9757 15.8961 12.9757C15.548 12.9757 15.2141 13.114 14.968 13.3602C14.7219 13.6063 14.5836 13.9401 14.5836 14.2882V22.2307C14.5836 22.5788 14.7219 22.9127 14.968 23.1588C15.2141 23.405 15.548 23.5432 15.8961 23.5432C16.2442 23.5432 16.578 23.405 16.8242 23.1588C17.0703 22.9127 17.2086 22.5788 17.2086 22.2307V14.2882Z" fill="white"/>
</g>
</g>
</svg>
