<svg width="15" height="15" viewBox="0 0 15 15" fill="none" xmlns="http://www.w3.org/2000/svg">
<g id="mdi:clock-outline">
<path id="Vector" d="M7.63345 12.0324C8.90994 12.0324 10.1341 11.5253 11.0368 10.6227C11.9394 9.72008 12.4465 8.49587 12.4465 7.21938C12.4465 5.9429 11.9394 4.71869 11.0368 3.81607C10.1341 2.91346 8.90994 2.40638 7.63345 2.40638C6.35696 2.40638 5.13275 2.91346 4.23014 3.81607C3.32752 4.71869 2.82044 5.9429 2.82044 7.21938C2.82044 8.49587 3.32752 9.72008 4.23014 10.6227C5.13275 11.5253 6.35696 12.0324 7.63345 12.0324ZM7.63345 1.20312C8.42351 1.20313 9.20584 1.35874 9.93577 1.66109C10.6657 1.96343 11.3289 2.40659 11.8876 2.96525C12.4462 3.52391 12.8894 4.18714 13.1917 4.91706C13.4941 5.64699 13.6497 6.42932 13.6497 7.21938C13.6497 8.815 13.0159 10.3453 11.8876 11.4735C10.7593 12.6018 9.22906 13.2356 7.63345 13.2356C4.30646 13.2356 1.61719 10.5283 1.61719 7.21938C1.61719 5.62377 2.25104 4.09351 3.37931 2.96525C4.50758 1.83698 6.03784 1.20313 7.63345 1.20312ZM7.93426 4.21125V7.36979L10.6416 8.97613L10.1904 9.71613L7.03182 7.82101V4.21125H7.93426Z" fill="black"/>
</g>
</svg>
