<svg width="18" height="17" viewBox="0 0 18 17" fill="none" xmlns="http://www.w3.org/2000/svg">
<path d="M7.85679 9.46646L11.8951 5.42813M16.0251 2.96479L12.6168 14.0431C12.311 15.0365 12.1585 15.5331 11.8943 15.6973C11.7818 15.7676 11.6542 15.81 11.522 15.821C11.3898 15.832 11.2569 15.8113 11.1343 15.7606C10.8476 15.6415 10.6143 15.1773 10.1493 14.2473L7.99096 9.92896C7.94683 9.82891 7.89296 9.73345 7.83013 9.64396C7.78678 9.58748 7.73636 9.53679 7.68013 9.49313C7.59331 9.43283 7.50095 9.38093 7.40429 9.33813L3.07679 7.17313C2.14763 6.70813 1.68263 6.47563 1.56346 6.18896C1.51263 6.06627 1.49186 5.93321 1.50287 5.80086C1.51389 5.66852 1.55638 5.54072 1.62679 5.42813C1.79096 5.16479 2.28763 5.01146 3.28096 4.70563L14.3601 1.29729C15.141 1.05646 15.531 0.936459 15.7951 1.03396C15.9086 1.07563 16.0116 1.14149 16.0971 1.22696C16.1826 1.31244 16.2485 1.41549 16.2901 1.52896C16.3868 1.79229 16.2668 2.18229 16.0268 2.96229L16.0251 2.96479Z" stroke="white" stroke-width="1.66667" stroke-linecap="round" stroke-linejoin="round"/>
</svg>
