<svg width="342" height="224" viewBox="0 0 342 224" fill="none" xmlns="http://www.w3.org/2000/svg">
<rect x="0.5" y="0.5" width="341" height="223" rx="7.5" fill="white"/>
<rect x="0.5" y="0.5" width="341" height="223" rx="7.5" stroke="#EAEAEA"/>
<g filter="url(#filter0_d_153_3450)">
<rect x="10" y="184" width="157" height="30" rx="2" fill="#EAEAEA"/>
</g>
<g filter="url(#filter1_d_153_3450)">
<rect x="12" y="47" width="110" height="58" rx="2" fill="#EAEAEA"/>
</g>
<g filter="url(#filter2_d_153_3450)">
<rect x="127" y="59" width="61" height="85" rx="2" fill="#EAEAEA"/>
</g>
<g filter="url(#filter3_d_153_3450)">
<rect x="180" y="9" width="134" height="36" rx="2" fill="#EAEAEA"/>
</g>
<g filter="url(#filter4_d_153_3450)">
<rect x="213" y="171" width="119" height="32" rx="2" fill="#EAEAEA"/>
</g>
<g opacity="0.5">
<rect width="16.8215" height="14.2618" rx="1" transform="matrix(0.00495174 0.999988 -0.999989 0.00472597 279.976 131.779)" fill="#B6C7B7"/>
<rect width="16.8215" height="14.2618" rx="1" transform="matrix(0.00495174 0.999988 -0.999989 0.00472597 261.976 131.779)" fill="#B6C7B7"/>
<rect width="16.8215" height="14.2618" rx="1" transform="matrix(0.00495174 0.999988 -0.999989 0.00472597 244.833 131.779)" fill="#B6C7B7"/>
<rect width="16.8215" height="14.2618" rx="1" transform="matrix(0.00495174 0.999988 -0.999989 0.00472597 227.69 131.779)" fill="#B6C7B7"/>
<rect width="16.8215" height="14.2618" rx="1" transform="matrix(0.00495174 0.999988 -0.999989 0.00472597 227.69 74)" fill="#B6C7B7"/>
<rect width="16.8215" height="14.2618" rx="1" transform="matrix(0.00495174 0.999988 -0.999989 0.00472597 244.833 74)" fill="#B6C7B7"/>
<rect width="16.8215" height="14.2618" rx="1" transform="matrix(0.00495174 0.999988 -0.999989 0.00472597 262.833 74)" fill="#B6C7B7"/>
<rect width="16.8215" height="14.2618" rx="1" transform="matrix(0.00495174 0.999988 -0.999989 0.00472597 279.976 74)" fill="#DAC79F"/>
<path d="M279.286 128.429H267.143C266.591 128.429 266.143 127.982 266.143 127.429V105.73C266.143 105.287 266.434 104.897 266.859 104.771L279.002 101.176C279.643 100.986 280.286 101.467 280.286 102.135V127.429C280.286 127.982 279.838 128.429 279.286 128.429Z" fill="#B6C7B7"/>
<path d="M260.49 126.072L249.417 111.536C249.002 110.991 249.245 110.2 249.894 109.982L260.967 106.263C261.615 106.045 262.286 106.527 262.286 107.211V125.466C262.286 126.423 261.07 126.834 260.49 126.072Z" fill="#B6C7B7"/>
<path d="M248.571 127.063V119.726C248.571 118.725 249.879 118.345 250.415 119.19L255.244 126.789C255.68 127.476 255.158 128.368 254.345 128.324L249.517 128.062C248.987 128.033 248.571 127.595 248.571 127.063Z" fill="#B6C7B7"/>
<path d="M231.245 116.055L243.817 111.72C244.466 111.496 245.143 111.979 245.143 112.666V127.4C245.143 127.964 244.677 128.416 244.114 128.4L231.543 128.038C231.002 128.023 230.571 127.58 230.571 127.039V117C230.571 116.574 230.842 116.194 231.245 116.055Z" fill="#B6C7B7"/>
<path d="M213.69 121.505L225.833 117.551C226.479 117.341 227.143 117.822 227.143 118.502V127.429C227.143 127.982 226.695 128.429 226.143 128.429H214C213.448 128.429 213 127.982 213 127.429V122.456C213 122.023 213.279 121.64 213.69 121.505Z" fill="#B6C7B7"/>
<path d="M266.143 100.217V95.0969C266.143 94.5446 266.591 94.0969 267.143 94.0969H279.286C279.838 94.0969 280.286 94.5446 280.286 95.0969V95.9031C280.286 96.3263 280.019 96.7037 279.62 96.8454L267.478 101.159C266.827 101.39 266.143 100.908 266.143 100.217Z" fill="#B6C7B7"/>
<path d="M262.714 101.724V95.0969C262.714 94.5446 262.267 94.0969 261.714 94.0969H249.571C249.019 94.0969 248.571 94.5446 248.571 95.0969V105.319C248.571 105.987 249.214 106.467 249.855 106.277L261.998 102.683C262.423 102.557 262.714 102.167 262.714 101.724Z" fill="#B6C7B7"/>
<path d="M244.143 94.0969H239.408C238.588 94.0969 238.116 95.03 238.603 95.6902L243.338 102.115C243.911 102.892 245.143 102.487 245.143 101.522V95.0969C245.143 94.5446 244.695 94.0969 244.143 94.0969Z" fill="#B6C7B7"/>
<path d="M232.199 94.0969H231.571C231.019 94.0969 230.571 94.5446 230.571 95.0969V111.064C230.571 111.766 231.275 112.249 231.93 111.998L241.365 108.376C241.976 108.142 242.201 107.394 241.821 106.862L233.013 94.5162C232.826 94.2531 232.522 94.0969 232.199 94.0969Z" fill="#B6C7B7"/>
<path d="M227.554 112.564L227.165 95.0747C227.153 94.5312 226.708 94.0969 226.165 94.0969H214C213.448 94.0969 213 94.5446 213 95.0969V115.833C213 116.487 213.617 116.965 214.25 116.801L226.804 113.555C227.254 113.439 227.564 113.029 227.554 112.564Z" fill="#B6C7B7"/>
</g>
<rect width="73.9718" height="38.0692" rx="1" transform="matrix(0.00495174 0.999988 -0.999989 0.00472597 328.069 74)" fill="#DBE3DB"/>
<path d="M304.391 102.997V105.294H305.42V102.196H306.452V110.442H305.42V106.174H304.391V108.595H300.924V102.997H304.391ZM301.942 107.738H303.372V103.854H301.942V107.738ZM307.222 110.863V102.044H308.265V110.863H307.222ZM316.642 102.051V108.429H315.554V102.051H316.642ZM309.452 104.834C309.449 103.55 310.488 102.631 311.831 102.631C313.175 102.631 314.207 103.55 314.207 104.834C314.207 106.14 313.175 107.051 311.831 107.048C310.488 107.051 309.449 106.14 309.452 104.834ZM310.512 104.834C310.509 105.618 311.075 106.102 311.831 106.102C312.567 106.102 313.14 105.618 313.14 104.834C313.14 104.071 312.567 103.577 311.831 103.577C311.075 103.577 310.509 104.071 310.512 104.834ZM310.802 110.698V107.78H311.897V109.817H316.89V110.698H310.802ZM308.71 119.041V119.918H305.188V122.856H304.114V119.918H300.641V119.041H308.71ZM301.625 118.008V114.497H307.719V118.008H301.625ZM302.688 117.159H306.638V115.363H302.688V117.159ZM316.887 114.044V122.863H315.858V118.371H314.863V122.425H313.865V114.21H314.863V117.494H315.858V114.044H316.887ZM309.566 120.805V115.087H312.864V115.961H310.654V119.89C311.617 119.883 312.405 119.835 313.302 119.662L313.389 120.553C312.318 120.767 311.393 120.798 310.167 120.805H309.566Z" fill="#5C5C5C"/>
<path d="M58.9947 72.8695V78.7224H54.7923V72.8695H58.9947ZM55.8731 77.8557H57.9381V73.7189H55.8731V77.8557ZM60.5796 80.884V72.0442H61.6743V80.884H60.5796ZM66.5668 72.9385V76.2258H64.2844V77.9489C65.1787 77.942 66.0316 77.904 67.0123 77.7452L67.0917 78.6188C65.9038 78.8225 64.937 78.8536 63.8389 78.8605H63.2347V75.3557H65.5206V73.8225H63.2243V72.9385H66.5668ZM67.544 80.4247V72.2099H68.542V75.4316H69.5364V72.0442H70.5655V80.8633H69.5364V76.3087H68.542V80.4247H67.544ZM76.5423 72.6968V73.2217C76.5354 73.8225 76.5354 74.703 76.3282 75.8184L75.2578 75.7217C75.4339 74.8101 75.4684 74.1333 75.4787 73.5912H72.0464V72.6968H76.5423ZM71.5216 76.5193C72.0395 76.5193 72.6231 76.5159 73.2412 76.5021V74.7099H74.3185V76.4675C75.2336 76.4296 76.1694 76.3605 77.0292 76.2362L77.0879 77.0235C75.2508 77.3515 73.1618 77.386 71.6183 77.3895L71.5216 76.5193ZM72.8372 80.6975V78.0628H73.9283V79.817H78.9352V80.6975H72.8372ZM77.5471 78.6568V72.0442H78.6521V74.7928H79.795V75.7044H78.6521V78.6568H77.5471Z" fill="#5C5C5C"/>
<path d="M148.455 98.4461C148.455 99.558 149.173 100.608 150.53 101.039L149.95 101.885C148.997 101.564 148.31 100.919 147.93 100.1C147.546 101.036 146.835 101.771 145.817 102.134L145.23 101.278C146.652 100.784 147.363 99.6098 147.37 98.346V97.5104H148.455V98.4461ZM146.435 104.182C146.431 103.132 147.578 102.514 149.421 102.517C151.245 102.514 152.374 103.132 152.374 104.182C152.374 105.249 151.245 105.86 149.421 105.856C147.578 105.86 146.431 105.249 146.435 104.182ZM147.519 104.182C147.515 104.724 148.209 105 149.421 105.003C150.63 105 151.307 104.724 151.307 104.182C151.307 103.664 150.63 103.367 149.421 103.367C148.209 103.367 147.515 103.664 147.519 104.182ZM151.203 102.32V97.0442H152.294V99.1851H153.527V100.09H152.294V102.32H151.203ZM157.097 98.4461C157.097 99.558 157.815 100.608 159.172 101.039L158.592 101.885C157.639 101.564 156.952 100.919 156.572 100.1C156.189 101.036 155.478 101.771 154.459 102.134L153.872 101.278C155.295 100.784 156.006 99.6098 156.013 98.346V97.5104H157.097V98.4461ZM155.077 104.182C155.074 103.132 156.22 102.514 158.064 102.517C159.887 102.514 161.016 103.132 161.016 104.182C161.016 105.249 159.887 105.86 158.064 105.856C156.22 105.86 155.074 105.249 155.077 104.182ZM156.161 104.182C156.158 104.724 156.852 105 158.064 105.003C159.273 105 159.949 104.724 159.949 104.182C159.949 103.664 159.273 103.367 158.064 103.367C156.852 103.367 156.158 103.664 156.161 104.182ZM159.846 102.32V97.0442H160.937V99.1851H162.17V100.09H160.937V102.32H159.846ZM167.542 97.6968V98.2217C167.535 98.8225 167.535 99.703 167.328 100.818L166.258 100.722C166.434 99.8101 166.468 99.1333 166.479 98.5912H163.046V97.6968H167.542ZM162.522 101.519C163.04 101.519 163.623 101.516 164.241 101.502V99.7099H165.319V101.468C166.234 101.43 167.169 101.36 168.029 101.236L168.088 102.023C166.251 102.352 164.162 102.386 162.618 102.39L162.522 101.519ZM163.837 105.698V103.063H164.928V104.817H169.935V105.698H163.837ZM168.547 103.657V97.0442H169.652V99.7928H170.795V100.704H169.652V103.657H168.547Z" fill="#5C5C5C"/>
<path d="M241.723 23.0511V29.5256H240.638V27.3363H238.535C238.114 27.8094 237.489 28.096 236.778 28.096C235.448 28.096 234.444 27.1464 234.45 25.8412C234.444 24.5256 235.448 23.5829 236.778 23.576C237.486 23.5794 238.111 23.8626 238.532 24.3356H240.638V23.0511H241.723ZM235.483 25.8412C235.483 26.6285 236.022 27.1326 236.778 27.136C237.503 27.1326 238.055 26.6285 238.055 25.8412C238.055 25.0539 237.503 24.5463 236.778 24.5463C236.022 24.5463 235.483 25.0539 235.483 25.8412ZM235.932 31.6975V28.866H237.016V30.817H241.944V31.6975H235.932ZM239.005 25.2127C239.06 25.4095 239.091 25.6202 239.091 25.8412C239.091 26.0587 239.06 26.2659 239.009 26.4593H240.638V25.2127H239.005ZM250.03 23.5794V24.3667C250.03 25.192 250.03 26.0967 249.795 27.3432H251.014V28.2272H247.51V31.8771H246.415V28.2272H242.972V27.3432H248.697C248.939 26.1416 248.949 25.2438 248.949 24.453H243.925V23.5794H250.03ZM256.542 23.6968V24.2217C256.535 24.8225 256.535 25.703 256.328 26.8184L255.258 26.7217C255.434 25.8101 255.468 25.1333 255.479 24.5912H252.046V23.6968H256.542ZM251.522 27.5193C252.04 27.5193 252.623 27.5159 253.241 27.5021V25.7099H254.319V27.4675C255.234 27.4296 256.169 27.3605 257.029 27.2362L257.088 28.0235C255.251 28.3515 253.162 28.386 251.618 28.3895L251.522 27.5193ZM252.837 31.6975V29.0628H253.928V30.817H258.935V31.6975H252.837ZM257.547 29.6568V23.0442H258.652V25.7928H259.795V26.7044H258.652V29.6568H257.547Z" fill="#5C5C5C"/>
<path d="M263.683 184.836C263.683 185.934 264.432 187.012 265.837 187.44L265.281 188.293C264.276 187.972 263.551 187.305 263.151 186.466C262.75 187.381 262.001 188.11 260.958 188.465L260.395 187.609C261.818 187.143 262.578 186 262.581 184.836V184.584H260.682V183.711H265.54V184.584H263.683V184.836ZM261.839 191.698V188.866H262.933V190.817H267.926V191.698H261.839ZM266.59 189.46V183.051H267.678V189.46H266.59ZM276.327 183.044V191.884H275.246V183.044H276.327ZM269.452 184.691V183.811H273.61V187.122H270.578V188.897C271.966 188.89 273.164 188.821 274.542 188.59L274.639 189.477C273.137 189.736 271.818 189.791 270.233 189.791H269.459V186.259H272.505V184.691H269.452ZM282.542 183.697V184.222C282.535 184.823 282.535 185.703 282.328 186.818L281.258 186.722C281.434 185.81 281.468 185.133 281.479 184.591H278.046V183.697H282.542ZM277.522 187.519C278.04 187.519 278.623 187.516 279.241 187.502V185.71H280.319V187.468C281.234 187.43 282.169 187.36 283.029 187.236L283.088 188.023C281.251 188.352 279.162 188.386 277.618 188.39L277.522 187.519ZM278.837 191.698V189.063H279.928V190.817H284.935V191.698H278.837ZM283.547 189.657V183.044H284.652V185.793H285.795V186.704H284.652V189.657H283.547Z" fill="#5C5C5C"/>
<path d="M84.389 200.017V200.911H80.8669V203.87H79.793V200.911H76.3193V200.017H84.389ZM77.1653 197.34C77.1618 196.128 78.4533 195.358 80.3317 195.358C82.2136 195.358 83.512 196.128 83.512 197.34C83.512 198.532 82.2136 199.291 80.3317 199.291C78.4533 199.291 77.1618 198.532 77.1653 197.34ZM78.2841 197.34C78.2772 198.024 79.0852 198.428 80.3317 198.428C81.5852 198.428 82.3897 198.024 82.3932 197.34C82.3897 196.643 81.5852 196.232 80.3317 196.232C79.0852 196.232 78.2772 196.643 78.2841 197.34ZM93.0143 199.83V200.7H84.9722V199.83H88.446V198.805H89.5233V199.83H93.0143ZM85.3624 198.411C87.196 198.242 88.2422 197.582 88.3666 196.795H85.763V195.949H88.446V195.051H89.5233V195.949H92.2236V196.795H89.5993C89.7201 197.582 90.7664 198.242 92.6103 198.411L92.2581 199.247C90.6974 199.095 89.5337 198.57 88.9847 197.765C88.4391 198.57 87.2754 199.095 85.7112 199.247L85.3624 198.411ZM85.9632 203.698V201.27H87.0544V202.817H92.1062V203.698H85.9632ZM98.5423 195.697V196.222C98.5354 196.823 98.5354 197.703 98.3282 198.818L97.2578 198.722C97.4339 197.81 97.4684 197.133 97.4787 196.591H94.0464V195.697H98.5423ZM93.5216 199.519C94.0395 199.519 94.6231 199.516 95.2412 199.502V197.71H96.3185V199.468C97.2336 199.43 98.1694 199.36 99.0292 199.236L99.0879 200.023C97.2508 200.352 95.1618 200.386 93.6183 200.39L93.5216 199.519ZM94.8372 203.698V201.063H95.9283V202.817H100.935V203.698H94.8372ZM99.5471 201.657V195.044H100.652V197.793H101.795V198.704H100.652V201.657H99.5471Z" fill="#5C5C5C"/>
<path opacity="0.5" d="M22.2351 21.6354V25.8315H21.3677V24.105H20.1605V23.395H21.3677V21.6354H22.2351ZM16.2986 25.1215C17.434 24.7348 18.0307 23.7845 18.0307 22.8481V22.7956H16.5583V22.0939H20.376V22.7956H18.9147V22.8398C18.9147 23.7044 19.4837 24.5718 20.5749 24.9365L20.1412 25.6243C19.3567 25.3591 18.7986 24.8204 18.4893 24.1547C18.1799 24.9061 17.5915 25.5138 16.7517 25.8094L16.2986 25.1215ZM17.4423 27.3508C17.4395 26.5028 18.3539 26.0083 19.8456 26.0055C21.3401 26.0083 22.2544 26.5028 22.2544 27.3508C22.2544 28.1989 21.3401 28.6934 19.8456 28.6961C18.3539 28.6934 17.4395 28.1989 17.4423 27.3508ZM18.3069 27.3508C18.3014 27.7901 18.8622 28.0276 19.8456 28.0221C20.8318 28.0276 21.3898 27.7901 21.3926 27.3508C21.3898 26.9088 20.8318 26.674 19.8456 26.674C18.8622 26.674 18.3014 26.9088 18.3069 27.3508ZM29.6823 25.163V25.8619H26.9558V27.1519H26.0967V25.8619H23.2265V25.163H29.6823ZM24.0083 28.558V26.511H24.8757V27.8536H28.9696V28.558H24.0083ZM24.0442 24.511V21.9558H28.8508V24.511H24.0442ZM24.8923 23.8287H27.9945V22.6354H24.8923V23.8287Z" fill="#5C5C5C"/>
<path opacity="0.5" d="M35.5407 12.4341L28.78 8.17479C28.1773 7.79546 27.6833 8.05413 27.6833 8.75146V9.99946H13.3333C12.9797 9.99946 12.6406 10.1399 12.3905 10.39C12.1405 10.64 12 10.9792 12 11.3328V15.3328C12 15.6864 12.1405 16.0256 12.3905 16.2756C12.6406 16.5257 12.9797 16.6661 13.3333 16.6661H27.6833V17.9321C27.6833 18.6295 28.1653 18.8741 28.7547 18.4728L35.5647 13.8521C36.1547 13.4521 36.1433 12.8141 35.5407 12.4341Z" fill="#5C5C5C"/>
<defs>
<filter id="filter0_d_153_3450" x="10" y="184" width="157" height="33" filterUnits="userSpaceOnUse" color-interpolation-filters="sRGB">
<feFlood flood-opacity="0" result="BackgroundImageFix"/>
<feColorMatrix in="SourceAlpha" type="matrix" values="0 0 0 0 0 0 0 0 0 0 0 0 0 0 0 0 0 0 127 0" result="hardAlpha"/>
<feOffset dy="3"/>
<feComposite in2="hardAlpha" operator="out"/>
<feColorMatrix type="matrix" values="0 0 0 0 0 0 0 0 0 0 0 0 0 0 0 0 0 0 0.3 0"/>
<feBlend mode="normal" in2="BackgroundImageFix" result="effect1_dropShadow_153_3450"/>
<feBlend mode="normal" in="SourceGraphic" in2="effect1_dropShadow_153_3450" result="shape"/>
</filter>
<filter id="filter1_d_153_3450" x="12" y="47" width="110" height="61" filterUnits="userSpaceOnUse" color-interpolation-filters="sRGB">
<feFlood flood-opacity="0" result="BackgroundImageFix"/>
<feColorMatrix in="SourceAlpha" type="matrix" values="0 0 0 0 0 0 0 0 0 0 0 0 0 0 0 0 0 0 127 0" result="hardAlpha"/>
<feOffset dy="3"/>
<feComposite in2="hardAlpha" operator="out"/>
<feColorMatrix type="matrix" values="0 0 0 0 0 0 0 0 0 0 0 0 0 0 0 0 0 0 0.3 0"/>
<feBlend mode="normal" in2="BackgroundImageFix" result="effect1_dropShadow_153_3450"/>
<feBlend mode="normal" in="SourceGraphic" in2="effect1_dropShadow_153_3450" result="shape"/>
</filter>
<filter id="filter2_d_153_3450" x="127" y="59" width="61" height="88" filterUnits="userSpaceOnUse" color-interpolation-filters="sRGB">
<feFlood flood-opacity="0" result="BackgroundImageFix"/>
<feColorMatrix in="SourceAlpha" type="matrix" values="0 0 0 0 0 0 0 0 0 0 0 0 0 0 0 0 0 0 127 0" result="hardAlpha"/>
<feOffset dy="3"/>
<feComposite in2="hardAlpha" operator="out"/>
<feColorMatrix type="matrix" values="0 0 0 0 0 0 0 0 0 0 0 0 0 0 0 0 0 0 0.3 0"/>
<feBlend mode="normal" in2="BackgroundImageFix" result="effect1_dropShadow_153_3450"/>
<feBlend mode="normal" in="SourceGraphic" in2="effect1_dropShadow_153_3450" result="shape"/>
</filter>
<filter id="filter3_d_153_3450" x="180" y="9" width="134" height="39" filterUnits="userSpaceOnUse" color-interpolation-filters="sRGB">
<feFlood flood-opacity="0" result="BackgroundImageFix"/>
<feColorMatrix in="SourceAlpha" type="matrix" values="0 0 0 0 0 0 0 0 0 0 0 0 0 0 0 0 0 0 127 0" result="hardAlpha"/>
<feOffset dy="3"/>
<feComposite in2="hardAlpha" operator="out"/>
<feColorMatrix type="matrix" values="0 0 0 0 0 0 0 0 0 0 0 0 0 0 0 0 0 0 0.3 0"/>
<feBlend mode="normal" in2="BackgroundImageFix" result="effect1_dropShadow_153_3450"/>
<feBlend mode="normal" in="SourceGraphic" in2="effect1_dropShadow_153_3450" result="shape"/>
</filter>
<filter id="filter4_d_153_3450" x="213" y="171" width="119" height="35" filterUnits="userSpaceOnUse" color-interpolation-filters="sRGB">
<feFlood flood-opacity="0" result="BackgroundImageFix"/>
<feColorMatrix in="SourceAlpha" type="matrix" values="0 0 0 0 0 0 0 0 0 0 0 0 0 0 0 0 0 0 127 0" result="hardAlpha"/>
<feOffset dy="3"/>
<feComposite in2="hardAlpha" operator="out"/>
<feColorMatrix type="matrix" values="0 0 0 0 0 0 0 0 0 0 0 0 0 0 0 0 0 0 0.3 0"/>
<feBlend mode="normal" in2="BackgroundImageFix" result="effect1_dropShadow_153_3450"/>
<feBlend mode="normal" in="SourceGraphic" in2="effect1_dropShadow_153_3450" result="shape"/>
</filter>
</defs>
</svg>
