<svg width="13" height="17" viewBox="0 0 13 17" fill="none" xmlns="http://www.w3.org/2000/svg">
<ellipse cx="6.5" cy="16" rx="3.5" ry="1" fill="#999999"/>
<path d="M1.88296 1.96756C3.11374 0.705172 4.77237 -0.00167892 6.49986 2.99467e-06C8.23001 2.99467e-06 9.89084 0.706454 11.1168 1.96756C12.2269 3.10806 12.8052 4.38476 12.958 5.71069C13.1101 7.02513 12.8382 8.34449 12.3198 9.58181C11.2909 12.0433 9.24557 14.2816 7.28378 15.738C7.05512 15.9084 6.78101 16 6.49986 16C6.2187 16 5.94459 15.9084 5.71593 15.738C3.75414 14.2816 1.70884 12.0425 0.679095 9.58181C0.161466 8.34449 -0.10956 7.02513 0.0417103 5.70987C0.194556 4.38476 0.772851 3.10888 1.88296 1.96756ZM4.33322 6.35888C4.33322 5.76045 4.56149 5.18654 4.96781 4.76338C5.37414 4.34023 5.92523 4.10251 6.49986 4.10251C7.07448 4.10251 7.62558 4.34023 8.0319 4.76338C8.43822 5.18654 8.66649 5.76045 8.66649 6.35888C8.66649 6.95731 8.43822 7.53123 8.0319 7.95438C7.62558 8.37753 7.07448 8.61526 6.49986 8.61526C5.92523 8.61526 5.37414 8.37753 4.96781 7.95438C4.56149 7.53123 4.33322 6.95731 4.33322 6.35888Z" fill="#469AF6"/>
</svg>
